<?xml version="1.0" encoding="UTF-8" standalone="no"?>
<!-- Created with Inkscape (http://www.inkscape.org/) -->

<svg
   width="119.84001mm"
   height="119.84mm"
   viewBox="0 0 119.84001 119.84"
   version="1.1"
   id="svg5"
   xmlns:inkscape="http://www.inkscape.org/namespaces/inkscape"
   xmlns:sodipodi="http://sodipodi.sourceforge.net/DTD/sodipodi-0.dtd"
   xmlns="http://www.w3.org/2000/svg"
   xmlns:svg="http://www.w3.org/2000/svg">
  <sodipodi:namedview
     id="namedview7"
     pagecolor="#ffffff"
     bordercolor="#666666"
     borderopacity="1.0"
     inkscape:showpageshadow="2"
     inkscape:pageopacity="0.0"
     inkscape:pagecheckerboard="0"
     inkscape:deskcolor="#d1d1d1"
     inkscape:document-units="mm"
     showgrid="false" />
  <defs
     id="defs2" />
  <g
     inkscape:label="Layer 1"
     inkscape:groupmode="layer"
     id="layer1"
     transform="translate(-62.557016,-59.162908)">
    <path
       id="path308"
       style="fill:#000000;stroke:#000000;stroke-width:4.99999;stroke-opacity:0"
       d="M 122.47728,61.662903 A 57.420002,57.420002 0 0 0 65.057011,119.08265 57.420002,57.420002 0 0 0 122.47728,176.50292 57.420002,57.420002 0 0 0 179.89703,119.08265 57.420002,57.420002 0 0 0 122.47728,61.662903 Z M 84.124064,77.509481 h 6.494694 v 29.553749 c 0,2.64592 0.174643,4.73404 0.524516,6.26474 0.37174,1.53069 0.984281,2.91921 1.837097,4.16563 0.962151,1.42136 2.263091,2.49318 3.903121,3.21479 1.661897,0.72162 3.651748,1.08211 5.969658,1.08211 2.33978,0 4.32963,-0.3498 5.96966,-1.04955 1.64003,-0.72161 2.95218,-1.80412 3.9362,-3.24735 0.85281,-1.24642 1.45415,-2.66752 1.80402,-4.26382 0.37174,-1.61816 0.55759,-3.61922 0.55759,-6.00273 V 77.509481 h 6.4947 v 29.225609 c 0,3.54246 -0.3936,6.63672 -1.18081,9.28263 -0.76535,2.62405 -2.0337,4.81096 -3.80494,6.56033 -1.68376,1.66189 -3.65172,2.87525 -5.90403,3.6406 -2.25231,0.76535 -4.8766,1.14825 -7.87239,1.14825 -3.061386,0 -5.728951,-0.4048 -8.003126,-1.21388 -2.274175,-0.80908 -4.187656,-2.00054 -5.740218,-3.57497 -1.771232,-1.7931 -3.050277,-3.95812 -3.837492,-6.4947 -0.765347,-2.53658 -1.14825,-5.65273 -1.14825,-9.34826 z m 62.920186,29.862259 c 2.5911,0 5.17164,0.3133 7.74113,0.93948 2.5911,0.62618 5.46249,1.72742 8.61498,3.30367 v 7.61091 h -0.48576 c -2.65586,-2.22403 -5.2902,-3.84326 -7.90287,-4.8581 -2.61269,-1.01485 -5.40888,-1.52239 -8.38864,-1.52239 -2.43995,0 -4.64243,0.39946 -6.60735,1.19837 -1.94332,0.77733 -3.68108,1.99763 -5.21415,3.66025 -1.48988,1.61942 -2.65587,3.67049 -3.49798,6.15363 -0.82051,2.46153 -1.23093,5.31203 -1.23093,8.5509 0,3.39 0.45325,6.30473 1.36012,8.74468 0.92848,2.43995 2.11641,4.42626 3.56309,5.95933 1.51148,1.59784 3.27117,2.78576 5.27927,3.56309 2.02969,0.75573 4.16744,1.13326 6.41304,1.13326 3.08773,0 5.98105,-0.52895 8.68009,-1.58698 2.69906,-1.05803 5.22529,-2.64489 7.57887,-4.76095 h 0.4532 v 7.51427 c -1.18758,0.51822 -2.2669,1.00383 -3.23856,1.45727 -0.95007,0.45345 -2.20274,0.92861 -3.75739,1.42524 -1.31714,0.41026 -2.75259,0.75593 -4.30723,1.03663 -1.53307,0.30229 -3.22853,0.4532 -5.08548,0.4532 -3.49798,0 -6.68266,-0.48561 -9.55446,-1.45727 -2.85019,-0.99326 -5.3331,-2.53729 -7.44915,-4.63176 -2.07288,-2.05129 -3.69263,-4.65323 -4.85862,-7.80573 -1.166,-3.17408 -1.74873,-6.85536 -1.74873,-11.04428 0,-3.97302 0.56132,-7.5253 1.68413,-10.6562 1.12281,-3.13091 2.74204,-5.77567 4.8581,-7.93492 2.05129,-2.09447 4.52373,-3.69281 7.41712,-4.79402 2.91498,-1.10122 6.14301,-1.65158 9.68416,-1.65158 z" />
  </g>
</svg>
